<?xml version="1.0" encoding="UTF-8"?>
<svg width="200px" height="200px" viewBox="0 0 200 200" version="1.1" xmlns="http://www.w3.org/2000/svg" xmlns:xlink="http://www.w3.org/1999/xlink">
    <!-- Generator: Sketch 51.3 (57544) - http://www.bohemiancoding.com/sketch -->
    <title>logo</title>
    <desc>Created with Sketch.</desc>
    <defs>
        <filter x="-3.9%" y="-6.9%" width="107.7%" height="119.4%" filterUnits="objectBoundingBox" id="filter-1">
            <feOffset dx="0" dy="2" in="SourceAlpha" result="shadowOffsetOuter1"></feOffset>
            <feGaussianBlur stdDeviation="2" in="shadowOffsetOuter1" result="shadowBlurOuter1"></feGaussianBlur>
            <feColorMatrix values="0 0 0 0 1   0 0 0 0 1   0 0 0 0 1  0 0 0 0.03 0" type="matrix" in="shadowBlurOuter1" result="shadowMatrixOuter1"></feColorMatrix>
            <feMerge>
                <feMergeNode in="shadowMatrixOuter1"></feMergeNode>
                <feMergeNode in="SourceGraphic"></feMergeNode>
            </feMerge>
        </filter>
    </defs>
    <g id="Page-1" stroke="none" stroke-width="1" fill="none" fill-rule="evenodd">
        <g id="Artboard" transform="translate(-28.000000, -28.000000)">
            <g id="logo" transform="translate(28.000000, 28.000000)">
                <rect id="Rectangle" fill="#E91E63" x="0" y="0" width="200" height="200" rx="45"></rect>
                <g filter="url(#filter-1)" transform="translate(10.000000, 64.000000)" fill="#FFFFFF">
                    <path d="M106.981731,41.6329583 C106.981199,41.380745 106.947156,41.1283702 106.924637,40.8210963 C106.595019,40.9102267 106.377992,40.9895076 106.152277,41.0269682 C104.214815,41.3497431 102.287992,41.7981403 100.333863,41.9495974 C97.7653563,42.1485262 96.2988288,41.1181977 95.7397717,38.8335843 C95.4085574,37.479512 95.1972043,36.0744158 95.1757499,34.6893417 C95.0972017,29.6331268 95.1200747,24.5754586 95.1083722,19.5182749 C95.1078403,19.233768 95.1406426,18.949261 95.1638701,18.5641594 L106.627289,18.5641594 L106.627289,10.8816643 L95.1060672,10.8816643 L95.1060672,9.91188636 C95.1060672,6.92569364 95.1092588,3.93966239 95.1014572,0.953308198 C95.1005706,0.635538799 95.0347888,0.317769399 94.9991495,0 L85.4256732,0 L85.4256732,10.8810184 L82.102537,10.8810184 C80,10.8810184 80,10.8810184 80,12.7522733 L80,17.5947043 L80,18.627132 L85.4519151,18.627132 L85.4519151,19.6862018 C85.4519151,24.5555981 85.3786862,29.426286 85.4831215,34.2937446 C85.5345413,36.674916 85.7689446,39.0720728 86.1875725,41.4224038 C86.6647126,44.1006767 87.8471902,46.5254445 90.4032852,48.1759723 C92.2185807,49.3480699 94.2931028,49.8090616 96.474188,49.9390435 C99.8412969,50.1399099 103.128262,49.8914104 106.209725,48.4798555 C106.780307,48.2185999 107.01276,47.8814544 106.999462,47.2820844 C106.957972,45.3996883 106.986164,43.5160004 106.981731,41.6329583" id="Fill-1"></path>
                    <path d="M24.3021419,41.5213799 C20.83885,43.0715895 17.2768343,43.5630142 13.5701681,42.3526901 C11.0977314,41.5452547 9.50928934,40.0441213 9.31817002,37.5319527 C9.12036062,34.9324086 10.3520587,33.0675147 12.8436615,31.884713 C14.7568437,30.9764726 16.8248018,30.6956111 19.1627137,30.6959427 C22.2553389,30.7669041 25.4407212,31.4234635 28.5950037,32.2647217 C29.1739669,32.4192452 29.2282108,32.7785291 29.2611187,33.1971686 C29.5563863,36.9470179 28.1057238,39.8189678 24.3021419,41.5213799 M38.8281144,22.6128015 C38.2489705,16.2655634 33.4030017,11.0404451 26.640777,9.70593841 C21.214941,8.63521607 15.7580052,8.83483665 10.3480808,9.95148498 C7.85177673,10.4667846 5.46052504,11.2548217 3.12424049,12.4154064 C4.08526149,14.8443445 5.02910526,17.2291804 5.891764,19.4095875 C8.79489725,18.7029572 11.5155902,17.8951902 14.3022799,17.4002837 C17.5598066,16.8216493 20.8337872,16.9836338 23.9811988,18.1065824 C27.3833759,19.3203883 29.2958348,22.8266806 28.9823051,26.2131012 C28.9526518,26.2177435 28.9202863,26.2320021 28.8937067,26.2257018 C28.574391,26.1512586 28.256341,26.072173 27.9372061,25.9972324 C22.5489792,24.7331898 17.1206118,24.1731248 11.6110594,25.2746855 C8.90682048,25.8153522 6.35735743,26.6992204 4.2469083,28.4079327 C0.906207636,31.1129242 -0.0202780858,34.6944887 0.000334594208,38.5749868 C0.0191391444,42.106812 1.56038901,44.9981602 4.63511377,47.1417602 C7.37207989,49.0497616 10.434871,50.0422273 13.9343255,49.9986225 C19.5950375,49.9283242 24.6767864,48.5871856 28.7729237,44.8096481 C28.8381972,44.7492976 28.9542791,44.7353706 29.1417822,44.6632486 L29.1417822,49.2392685 L38.9982595,49.2392685 L38.9982595,48.207177 C38.9982595,40.8326557 39.0053112,33.4581344 38.9910269,26.0836131 C38.9886764,24.9263443 38.9333476,23.7660911 38.8281144,22.6128015" id="Fill-3"></path>
                    <path d="M181,54 C179.54375,55.9418164 177.754289,57.5092594 175.82645,58.9219249 C169.308179,63.6993338 161.946554,66.6452373 154.176331,68.6734213 C148.74616,70.0907045 143.217712,70.9391589 137.626788,71.4582194 C131.364277,72.039533 125.092128,72.1055486 118.820496,71.8794537 C112.240092,71.6420712 105.709257,70.8656182 99.2145658,69.757206 C91.8933871,68.5075272 84.5667007,67.2809368 77.2215982,66.1819309 C72.726518,65.5091191 68.1959825,65.0630862 63.6752574,64.5717317 C56.0630352,63.7446554 48.4217259,63.500774 40.7681966,63.5170213 C37.3860003,63.5242044 34.0024271,63.3957647 30.6217798,63.4539131 C24.7213954,63.5556729 18.8201505,63.6907826 12.9247574,63.9389397 C9.96337781,64.0636168 7.01404619,64.4674066 4,64.6717813 C5.78360899,64.0212026 7.54449904,63.2982805 9.35547403,62.7337274 C14.4099221,61.1580752 19.6008559,60.1972574 24.8382603,59.4488526 C31.219701,58.5369479 37.6310895,57.9236527 44.0712208,57.7322759 C50.3142826,57.5465429 56.5657779,57.3741498 62.8079791,57.4940382 C71.2248304,57.6556567 79.6031284,58.4408319 87.9248011,59.7722606 C93.539994,60.6708253 99.1522609,61.617277 104.794992,62.3071913 C109.364253,62.8659296 113.971034,63.23979 118.571448,63.3961067 C124.440163,63.5958638 130.320755,63.5919302 136.193601,63.5016291 C146.780283,63.3386424 157.239258,62.0747685 167.510801,59.4606533 C172.039959,58.3076036 176.374802,56.6474651 180.426347,54.3004907 C180.612917,54.192403 180.80861,54.0997075 181,54" id="Fill-1"></path>
                    <path d="M160.652877,41.4783099 C153.366954,44.035681 145.260744,39.4856819 143.898476,32.0827222 C142.656377,25.3324059 146.733255,19.0683503 153.446196,17.4656562 C154.392748,17.2397919 155.383014,17.1786583 156.352903,17.0410248 C162.772561,17.1305774 168.211707,21.8629862 169.044882,27.9056387 C169.79864,33.3741301 166.668314,39.3668843 160.652877,41.4783099 M178.902082,27.6330154 C178.395977,22.6347577 176.21586,18.3611821 172.358248,14.9700797 C166.279766,9.62666445 159.081619,7.9530883 151.019471,9.61724656 C141.22758,11.6386239 134.014629,20.0818478 134,30.4421912 C134.014455,33.1021678 134.967799,36.4871569 136.924122,39.6029925 C141.60742,47.0621292 150.635451,51.0065742 159.85645,49.7784479 C171.014093,48.2927339 180.045955,38.9288696 178.902082,27.6330154" id="Fill-6"></path>
                    <path d="M68.0276079,26.431558 C65.4690835,25.6907904 62.8547845,25.1008437 60.3365812,24.2601326 C59.1182447,23.8534432 57.9682942,23.1319399 56.9597339,22.3595592 C55.6957476,21.3912431 55.5946784,20.2408223 56.3582924,18.888868 C57.1670234,17.4572223 58.5835905,16.8954311 60.1900397,16.691757 C63.5707948,16.2631689 66.768595,16.917659 69.8200315,18.2511724 C71.1715875,18.8417777 72.4853091,19.5068055 73.8643971,20.1608017 C75.1633758,18.0050182 76.4415723,15.8834823 77.7803392,13.6613443 C72.3755363,10.5011861 66.6442569,8.71504546 60.2809842,9.03726865 C55.638552,9.27222649 51.9306099,11.0511224 49.2511222,14.6984847 C45.765035,19.4440732 45.712813,27.8376827 54.1001335,30.8262739 C57.5363078,32.0506233 61.0801235,33.0131765 64.5502243,34.1591517 C65.8152765,34.5768728 67.1258008,35.0265363 68.210385,35.7322331 C70.6051383,37.2903312 70.4184534,40.061747 67.9345319,41.5085407 C66.643724,42.2603399 65.1802636,42.4870651 63.6977973,42.5468337 C59.868892,42.7012769 56.3376878,41.7843321 53.0668833,39.941222 C51.8922427,39.2793226 50.670709,38.6885526 49.4408268,38.0498691 C47.9375782,40.0551609 46.4899266,41.9863596 45,43.9738691 C45.29255,44.2032288 45.542825,44.4329178 45.8270265,44.6171629 C51.4048371,48.2322535 57.5016707,50.3136144 64.404571,49.9614247 C67.6696916,49.7947972 70.7348052,49.0164891 73.5400521,47.393189 C79.5395467,43.9211806 80.7974938,35.5055078 76.3014254,31.0029451 C74.0260368,28.7238376 71.1728309,27.3420813 68.0276079,26.431558" id="Fill-8"></path>
                    <path d="M119.028413,17.0793307 L119.028413,9.88179748 L109,9.88179748 L109,47 L119.3206,47 L119.3206,46.07356 C119.3206,41.0786964 119.366819,36.0836758 119.294623,31.0897542 C119.270618,29.410513 119.632314,27.8400707 120.213105,26.2649186 C121.717931,22.1829933 124.70107,19.5000694 129.567033,18.595452 C131.013457,18.3265159 132.487471,18.1709317 134,17.9560027 L134,9.01972626 C126.867482,8.70180708 122.569054,12.2629729 119.028413,17.0793307" id="Fill-10"></path>
                </g>
            </g>
        </g>
    </g>
</svg>